<?xml version="1.0" encoding="utf-8"?>
<!-- Generator: Adobe Illustrator 17.0.0, SVG Export Plug-In . SVG Version: 6.00 Build 0)  -->
<!DOCTYPE svg PUBLIC "-//W3C//DTD SVG 1.1//EN" "http://www.w3.org/Graphics/SVG/1.1/DTD/svg11.dtd">
<svg version="1.1" id="Layer_1" xmlns="http://www.w3.org/2000/svg" xmlns:xlink="http://www.w3.org/1999/xlink" x="0px" y="0px"
	 width="290.238px" height="73.646px" viewBox="0 0 290.238 73.646" enable-background="new 0 0 290.238 73.646"
	 xml:space="preserve">
<g>
	<path fill="#E6E7E8" d="M115.719,24.915c-0.338,1-0.8,1.987-1.402,2.95c-0.967-0.461-1.956-0.845-2.972-1.145
		c-1.019-0.303-2.344-0.453-3.975-0.453c-0.604,0-1.248,0.051-1.927,0.15c-0.677,0.103-1.301,0.294-1.85,0.575
		c-0.546,0.287-1.003,0.673-1.371,1.177c-0.374,0.499-0.559,1.145-0.559,1.95c0,1.13,0.414,2.066,1.235,2.801
		c0.809,0.726,1.854,1.46,3.124,2.197c1.13,0.631,2.179,1.266,3.147,1.896c0.965,0.639,1.812,1.319,2.547,2.052
		c0.737,0.737,1.308,1.56,1.727,2.475c0.417,0.92,0.624,1.977,0.624,3.178c0,1.7-0.31,3.331-0.923,4.896
		c-0.617,1.571-1.565,2.937-2.852,4.096c-1.281,1.17-2.906,2.103-4.875,2.799c-1.963,0.707-4.3,1.056-6.999,1.056
		c-3.133,0-6.213-0.581-9.248-1.752c0.131-1.001,0.379-2.005,0.724-3.024c0.354-1.014,0.778-2.074,1.277-3.175
		c1.263,0.468,2.556,0.869,3.871,1.201c1.319,0.33,2.598,0.499,3.826,0.499c1.032,0,1.994-0.116,2.879-0.35
		c0.88-0.236,1.649-0.582,2.298-1.045c0.644-0.472,1.155-1.036,1.526-1.7c0.365-0.668,0.55-1.455,0.55-2.351
		c0-0.667-0.154-1.255-0.455-1.752c-0.297-0.497-0.682-0.951-1.145-1.35c-0.472-0.406-1.019-0.777-1.654-1.128
		c-0.635-0.348-1.268-0.724-1.899-1.121c-2.131-1.272-3.822-2.576-5.072-3.93c-1.246-1.342-1.876-2.941-1.876-4.768
		c0-1.798,0.319-3.41,0.952-4.827c0.63-1.413,1.529-2.605,2.696-3.576c1.168-0.962,2.576-1.713,4.23-2.226
		c1.647-0.513,3.503-0.769,5.569-0.769c1.836,0,3.42,0.138,4.747,0.388c1.337,0.276,2.738,0.695,4.203,1.257
		C116.283,22.972,116.051,23.917,115.719,24.915L115.719,24.915z M138.617,40.867c-0.698,1.098-1.633,2.037-2.799,2.801
		c-1.168,0.762-2.494,1.391-3.978,1.87c-1.482,0.484-3.026,0.849-4.622,1.081l-3.351,0.546c0.203,1.598,0.735,2.796,1.598,3.576
		c0.869,0.78,2.141,1.176,3.797,1.176c1.335,0,2.514-0.142,3.53-0.428c1.014-0.279,2.094-0.655,3.222-1.125
		c0.533,0.669,0.893,1.477,1.079,2.425c0.18,0.949,0.27,1.961,0.27,3.024c-0.566,0.268-1.219,0.513-1.975,0.726
		c-0.742,0.221-1.522,0.401-2.322,0.552c-0.802,0.15-1.6,0.265-2.4,0.348c-0.802,0.08-1.513,0.127-2.148,0.127
		c-2.035,0-3.773-0.252-5.228-0.749c-1.448-0.499-2.649-1.206-3.601-2.128c-0.943-0.914-1.645-2.034-2.099-3.349
		c-0.448-1.317-0.669-2.779-0.669-4.376c0-2.034,0.35-4.029,1.047-5.994c0.702-1.97,1.694-3.726,2.977-5.275
		c1.281-1.557,2.844-2.801,4.699-3.757c1.849-0.949,3.926-1.424,6.222-1.424c1.101,0,2.124,0.143,3.073,0.406
		c0.958,0.267,1.778,0.675,2.476,1.223c0.698,0.55,1.248,1.226,1.654,2.023c0.394,0.8,0.597,1.734,0.597,2.803
		C139.665,38.463,139.315,39.766,138.617,40.867L138.617,40.867z M132.293,36.323c-0.421-0.406-0.974-0.606-1.676-0.606
		c-0.863,0-1.66,0.194-2.375,0.577c-0.717,0.379-1.343,0.896-1.876,1.52c-0.535,0.635-0.994,1.361-1.377,2.175
		c-0.381,0.824-0.671,1.645-0.873,2.476l2.6-0.399c1.263-0.196,2.3-0.455,3.1-0.777c0.8-0.314,1.43-0.664,1.896-1.049
		c0.47-0.381,0.787-0.775,0.956-1.176c0.165-0.396,0.249-0.798,0.249-1.197C132.917,37.231,132.708,36.72,132.293,36.323
		L132.293,36.323z M165.91,38.768c-0.063,0.568-0.15,1.163-0.245,1.8l-2.904,16.396c-1.264,0.203-2.48,0.301-3.65,0.301
		c-1.167,0-2.315-0.098-3.445-0.301l2.797-15.848c0.127-0.666,0.196-1.299,0.196-1.897c0-0.992-0.216-1.702-0.649-2.105
		c-0.43-0.394-1.045-0.599-1.849-0.599c-0.466,0-0.991,0.123-1.573,0.345c-0.586,0.239-1.174,0.731-1.774,1.482
		c-0.599,0.751-1.186,1.809-1.751,3.178c-0.568,1.361-1.052,3.16-1.455,5.395l-1.847,10.048c-1.297,0.203-2.512,0.301-3.643,0.301
		c-1.174,0-2.32-0.098-3.46-0.301l2.708-14.745c0.365-2.104,0.64-3.96,0.82-5.577c0.185-1.622,0.274-2.873,0.274-3.77
		c0-0.37,0-0.678,0-0.934c0-0.25-0.014-0.519-0.047-0.818c1.096-0.2,2.199-0.301,3.298-0.301c0.501,0,0.996,0.022,1.5,0.074
		c0.504,0.056,1.03,0.123,1.6,0.227c0.069,0.268,0.134,0.579,0.203,0.949c0.063,0.372,0.098,0.914,0.098,1.656
		c0,0.292-0.011,0.593-0.024,0.894c-0.02,0.297-0.06,0.66-0.121,1.098c0.395-0.7,0.896-1.368,1.495-1.992
		c0.604-0.637,1.281-1.192,2.048-1.656c0.769-0.47,1.591-0.831,2.476-1.101c0.88-0.269,1.772-0.406,2.676-0.406
		c1.994,0,3.558,0.512,4.675,1.533c1.116,1.014,1.671,2.705,1.671,5.072C166.01,37.669,165.975,38.202,165.91,38.768L165.91,38.768z
		 M194.158,27.665l-3.253,18.101c-0.363,2.094-0.63,3.959-0.798,5.573c-0.169,1.617-0.247,2.874-0.247,3.77c0,0.374,0,0.679,0,0.929
		c0,0.25,0.011,0.524,0.051,0.829c-1.101,0.194-2.184,0.299-3.255,0.299c-0.929,0-1.961-0.105-3.095-0.299
		c-0.067-0.265-0.136-0.588-0.203-0.951c-0.067-0.365-0.098-0.92-0.098-1.649c0-0.301,0.007-0.653,0.024-1.05
		c0.013-0.401,0.06-0.818,0.123-1.254c-0.466,0.773-1.021,1.491-1.673,2.181c-0.649,0.678-1.37,1.272-2.153,1.772
		c-0.782,0.499-1.622,0.9-2.52,1.192c-0.905,0.305-1.852,0.457-2.852,0.457c-2.199,0-3.85-0.698-4.949-2.103
		c-1.101-1.399-1.654-3.249-1.654-5.544c0-2.507,0.379-4.92,1.136-7.251c0.744-2.34,1.86-4.401,3.345-6.203
		c1.48-1.798,3.329-3.246,5.524-4.323c2.197-1.085,4.767-1.629,7.695-1.629c0.232,0,0.461,0.014,0.675,0.027
		c0.218,0.02,0.412,0.02,0.577,0.02c0.365-1.959,0.624-3.625,0.775-4.987c0.15-1.371,0.225-2.509,0.225-3.405
		c0-0.366-0.009-0.671-0.025-0.923c-0.013-0.25-0.044-0.521-0.074-0.824c0.566-0.103,1.215-0.176,1.956-0.229
		c0.726-0.047,1.357-0.071,1.892-0.071c0.971,0,2.034,0.093,3.202,0.299c0.169,0.499,0.25,1.13,0.25,1.898
		C194.758,23.783,194.561,25.574,194.158,27.665L194.158,27.665z M184.685,36.341c-0.285-0.014-0.557-0.018-0.818-0.018
		c-1.613,0-2.962,0.397-4.082,1.194c-1.121,0.798-2.043,1.803-2.776,3.001c-0.733,1.201-1.264,2.493-1.593,3.873
		c-0.337,1.384-0.504,2.647-0.504,3.773c0,2.465,0.818,3.695,2.451,3.695c1.596,0,3.082-0.967,4.443-2.913
		c1.373-1.956,2.366-4.691,3.004-8.233l0.747-4.247C185.252,36.401,184.964,36.357,184.685,36.341L184.685,36.341z M222.779,24.77
		c-0.317,0.898-0.756,1.883-1.324,2.946c-1.032-0.434-1.985-0.715-2.852-0.845c-0.865-0.136-1.714-0.198-2.551-0.198
		c-2.233,0-4.143,0.486-5.723,1.442c-1.584,0.967-2.883,2.224-3.899,3.777c-1.018,1.549-1.771,3.313-2.248,5.274
		c-0.484,1.968-0.726,3.949-0.726,5.948c0,2.901,0.706,4.964,2.123,6.203c1.417,1.228,3.291,1.839,5.626,1.839
		c0.466,0,0.982-0.018,1.553-0.069c0.566-0.045,0.998-0.107,1.295-0.172l2.199-12.545c0.668-0.14,1.299-0.232,1.903-0.276
		c0.604-0.051,1.185-0.078,1.75-0.078c0.568,0,1.156,0.027,1.772,0.078c0.617,0.043,1.228,0.136,1.825,0.276l-3.146,17.797
		c-1.469,0.495-3.118,0.854-4.949,1.074c-1.834,0.214-3.552,0.325-5.154,0.325c-2.427,0-4.564-0.348-6.396-1.056
		c-1.834-0.697-3.367-1.664-4.603-2.895c-1.233-1.226-2.155-2.696-2.77-4.372c-0.619-1.687-0.927-3.508-0.927-5.471
		c0-3.24,0.479-6.27,1.448-9.103c0.962-2.83,2.327-5.304,4.075-7.429c1.747-2.112,3.859-3.775,6.329-4.992
		c2.463-1.219,5.199-1.825,8.191-1.825c1.565,0,2.968,0.1,4.207,0.303c1.23,0.196,2.482,0.579,3.746,1.147
		C223.351,22.902,223.097,23.872,222.779,24.77L222.779,24.77z M243.252,34.813c-0.234,1-0.552,1.836-0.947,2.503
		c-0.203-0.033-0.417-0.071-0.657-0.098c-0.234-0.029-0.533-0.053-0.896-0.053c-1.362,0-2.496,0.236-3.372,0.702
		c-0.887,0.464-1.615,1.121-2.179,1.976c-0.566,0.851-1.018,1.874-1.344,3.075c-0.336,1.197-0.635,2.525-0.903,3.997l-1.847,10.048
		c-1.306,0.203-2.52,0.301-3.65,0.301c-1.17,0-2.322-0.098-3.452-0.301l2.705-14.745c0.357-2.104,0.633-3.96,0.816-5.577
		c0.189-1.622,0.281-2.873,0.281-3.77c0-0.37,0-0.678,0-0.934c0-0.25-0.022-0.519-0.056-0.818c1.103-0.2,2.201-0.301,3.305-0.301
		c0.499,0,0.996,0.022,1.498,0.074c0.497,0.056,1.03,0.123,1.595,0.227c0.076,0.268,0.136,0.579,0.205,0.949
		c0.062,0.372,0.096,0.914,0.096,1.656c0,0.292-0.005,0.593-0.02,0.894c-0.02,0.297-0.06,0.66-0.125,1.098
		c0.33-0.599,0.751-1.19,1.248-1.778c0.499-0.582,1.056-1.105,1.673-1.571c0.617-0.464,1.299-0.84,2.052-1.125
		c0.749-0.283,1.571-0.424,2.474-0.424c0.7,0,1.303,0.087,1.796,0.249c0.036,0.132,0.054,0.27,0.054,0.401c0,0.131,0,0.287,0,0.453
		C243.602,32.85,243.484,33.815,243.252,34.813L243.252,34.813z M251.849,56.964c-1.27,0.203-2.467,0.301-3.599,0.301
		c-1.034,0-2.148-0.098-3.349-0.301l3.603-20.449h-3.151c0-0.093-0.013-0.192-0.025-0.298c-0.016-0.094-0.029-0.218-0.029-0.35
		c0-0.863,0.087-1.674,0.25-2.425c0.167-0.749,0.417-1.52,0.751-2.322h10.103L251.849,56.964L251.849,56.964z M283.293,27.665
		l-3.246,18.101c-0.37,2.094-0.633,3.959-0.8,5.573c-0.169,1.617-0.252,2.874-0.252,3.77c0,0.374,0,0.679,0,0.929
		c0,0.25,0.018,0.524,0.053,0.829c-1.103,0.194-2.188,0.299-3.249,0.299c-0.936,0-1.97-0.105-3.104-0.299
		c-0.067-0.265-0.131-0.588-0.194-0.951c-0.072-0.365-0.101-0.92-0.101-1.649c0-0.301,0.009-0.653,0.02-1.05
		c0.018-0.401,0.062-0.818,0.125-1.254c-0.461,0.773-1.021,1.491-1.671,2.181c-0.651,0.678-1.368,1.272-2.153,1.772
		c-0.78,0.499-1.625,0.9-2.522,1.192c-0.905,0.305-1.847,0.457-2.848,0.457c-2.202,0-3.853-0.698-4.951-2.103
		c-1.101-1.399-1.647-3.249-1.647-5.544c0-2.507,0.375-4.92,1.121-7.251c0.753-2.34,1.865-4.401,3.354-6.203
		c1.477-1.798,3.32-3.246,5.52-4.323c2.197-1.085,4.764-1.629,7.703-1.629c0.234,0,0.456,0.014,0.671,0.027
		c0.218,0.02,0.408,0.02,0.573,0.02c0.363-1.959,0.631-3.625,0.773-4.987c0.154-1.371,0.227-2.509,0.227-3.405
		c0-0.366-0.007-0.671-0.027-0.923c-0.016-0.25-0.04-0.521-0.069-0.824c0.566-0.103,1.219-0.176,1.95-0.229
		c0.727-0.047,1.362-0.071,1.901-0.071c0.965,0,2.03,0.093,3.195,0.299c0.169,0.499,0.249,1.13,0.249,1.898
		C283.894,23.783,283.698,25.574,283.293,27.665L283.293,27.665z M273.822,36.341c-0.283-0.014-0.559-0.018-0.824-0.018
		c-1.6,0-2.953,0.397-4.078,1.194c-1.116,0.798-2.037,1.803-2.768,3.001c-0.735,1.201-1.27,2.493-1.604,3.873
		c-0.327,1.384-0.497,2.647-0.497,3.773c0,2.465,0.815,3.695,2.442,3.695c1.605,0,3.093-0.967,4.459-2.913
		c1.362-1.956,2.362-4.691,2.995-8.233l0.753-4.247C274.395,36.401,274.105,36.357,273.822,36.341L273.822,36.341z"/>
	<g>
		<path fill="#0071CE" d="M81.481,33.003c-0.013-0.035-0.025-0.069-0.033-0.1c-0.187-0.461-0.379-0.927-0.582-1.397
			c-0.392-0.492-0.836-0.876-1.312-1.17c-0.209-0.134-0.428-0.254-0.648-0.346c-0.143-0.069-0.281-0.127-0.421-0.176
			c-0.896-0.327-1.825-0.432-2.64-0.432c-2.117,0-4.53,0.72-6.629,1.956c-6.89,4.104-13.53,13.687-16.628,18.598l0.196-0.152
			l-1.324,2.092c5.43-0.169,17.737-0.591,24.362-5.103C83.503,40.976,82.155,34.893,81.481,33.003z"/>
		<path fill="#0071CE" d="M12.789,42.204c7.525-4.474,15.259-16.097,17.867-20.512c-6.953,0.16-18.199,1.09-24.444,5.185
			c-4.229,2.683-7.519,8.806-5.7,13.63c0.025,0.051,0.043,0.082,0.06,0.123c0.189,0.475,0.388,0.962,0.599,1.459
			c1.357,1.683,3.365,2.079,4.96,2.079C8.253,44.167,10.681,43.452,12.789,42.204z"/>
		<path fill="#0071CE" d="M57.589,40.611c-5.669-1.918-11.817-3.734-17.058-5.6c-0.065-4.129-0.172-9.16-0.298-13.735
			c-0.007-0.218-0.007-0.432-0.018-0.646c-0.007-0.227-0.013-0.448-0.015-0.666c-0.116-3.938-0.241-7.425-0.361-9.517
			c-2.765,3.407-5.154,7.059-6.883,9.91c-0.138,0.225-0.272,0.443-0.399,0.66c-0.065,0.105-0.132,0.221-0.196,0.33
			c-0.004,0.011-0.071,0.12-0.187,0.323c-0.758,1.301-3.753,6.311-7.826,11.387c0.114,0.189,6.721,11.202,11.933,19.859
			c0.123,0.205,0.247,0.414,0.366,0.613c0.129,0.21,0.254,0.416,0.376,0.62c2.663,4.418,4.827,8,5.346,8.828l-17.918-5.656
			l-0.943-0.301l-0.905-0.288l-0.777-0.245c0.753-6.85,1.996-21.194,2.516-23.418c-3.164,3.944-6.975,7.928-10.886,10.259
			c-2.304,1.366-4.976,2.152-7.326,2.152c-1.45,0-2.739-0.29-3.826-0.842c-0.114-0.058-0.23-0.118-0.334-0.181
			c3.558,7.786,8.998,17.085,13.902,23.725c0.468,0.638,0.931,1.248,1.392,1.836c0.013,0.014,0.02,0.036,0.036,0.046
			c1.894,2.304,4.791,3.583,8.14,3.583c2.121,0,4.396-0.508,6.767-1.511c7.329-3.538,13.951-14.219,16.779-18.78
			c0.02-0.031,0.029-0.056,0.049-0.08c0.158-0.259,0.308-0.499,0.441-0.706c0.054-0.087,0.1-0.162,0.149-0.239l0.004,0.004
			c0.049-0.111,0.12-0.247,0.22-0.423c0.241-0.437,0.657-1.121,1.35-2.228c0.916-1.46,2.395-3.735,4.227-6.235
			C56.079,42.549,56.807,41.594,57.589,40.611z"/>
		<path fill="#0071CE" d="M45.666,19.983c0.122,0.2,0.238,0.403,0.352,0.6c4.383,7.538,9.789,16.826,11.601,19.995
			c3.04-3.815,6.945-7.995,10.93-10.37c2.289-1.361,4.953-2.133,7.296-2.133c0.673,0,1.306,0.065,1.909,0.187
			c0.004,0,0.009,0,0.013,0.004c-0.009-0.004-0.009-0.013-0.018-0.02c-5.268-3.224-12.472-7.494-16.296-9.967
			c0.131-0.967,0.265-1.949,0.39-2.917c0.038-0.305,0.076-0.606,0.123-0.909c0.035-0.319,0.078-0.637,0.12-0.952
			c0.439-3.351,0.842-6.56,1.136-9.103c0.811,1.059,1.625,2.181,2.445,3.338c0.176,0.252,0.35,0.501,0.528,0.753
			c0.161,0.227,0.317,0.464,0.481,0.702c0.074,0.109,0.147,0.22,0.228,0.337c3.703,5.446,11.006,18.769,11.006,18.769l0.805,0.216
			c0.357,0.12,0.693,0.263,1.012,0.421c0.011,0.013,0.029,0.013,0.036,0.024c-1.413-3.069-3.135-6.389-5.034-9.716
			c-2.389-4.212-5.049-8.439-7.703-12.222c-0.245-0.354-0.492-0.702-0.742-1.047c-0.573-0.795-1.139-1.567-1.707-2.315
			c-0.334-0.443-0.67-0.874-0.996-1.293c-0.036-0.049-0.078-0.083-0.118-0.123V2.228C61.679,0.802,59.165,0,56.335,0
			c-2.297,0-4.65,0.537-6.449,1.473C46.406,3.233,42.992,6.589,40,10.25c0.631,1.081,2.736,4.702,5.308,9.125
			C45.432,19.574,45.55,19.781,45.666,19.983z"/>
	</g>
	<g>
		<path fill="#E6E7E8" d="M287.827,24.988c-1.263,0-2.199-0.96-2.199-2.206c0-1.411,0.949-2.28,2.473-2.28
			c1.252,0,2.137,0.918,2.137,2.16C290.238,24.083,289.327,24.988,287.827,24.988z M287.966,21.004
			c-0.943,0-1.718,0.629-1.718,1.696c0,1.098,0.671,1.774,1.727,1.774c0.896,0,1.656-0.666,1.656-1.731
			C289.632,21.693,288.935,21.004,287.966,21.004z M288.347,23.872l-0.582-0.862v0.519c0,0.024,0.004,0.085,0.046,0.343h-0.711
			v-1.954l-0.047-0.43h0.818c0.477,0,0.936,0.26,0.936,0.778c0,0.25-0.185,0.542-0.464,0.671l0.806,0.934H288.347z M287.789,22.691
			c0.207,0,0.426-0.134,0.426-0.424c0-0.287-0.219-0.37-0.426-0.37h-0.024v0.795H287.789z"/>
	</g>
	<path fill="#0071CE" d="M257.768,23.35c-0.207,1.069-0.504,2.164-0.907,3.296c-0.599,0.103-1.223,0.167-1.87,0.2
		c-0.65,0.035-1.239,0.053-1.772,0.053c-0.504,0-1.083-0.018-1.751-0.053c-0.671-0.033-1.27-0.096-1.805-0.2
		c-0.029-1.163,0.043-2.273,0.227-3.325c0.183-1.05,0.481-2.159,0.878-3.322c0.599-0.138,1.232-0.229,1.899-0.274
		c0.664-0.056,1.264-0.074,1.803-0.074c0.528,0,1.123,0.018,1.767,0.074c0.655,0.045,1.262,0.136,1.828,0.274
		C258.066,21.162,257.968,22.281,257.768,23.35L257.768,23.35z"/>
</g>
</svg>
